<?xml version="1.0" encoding="UTF-8" standalone="no"?>
<!DOCTYPE svg PUBLIC "-//W3C//DTD SVG 1.1//EN"
 "http://www.w3.org/Graphics/SVG/1.1/DTD/svg11.dtd">
<!-- Generated by graphviz version 2.38.0 (20140413.2041)
 -->
<!-- Title: Tree Pages: 1 -->
<svg width="949pt" height="433pt"
 viewBox="0.00 0.00 948.50 433.00" xmlns="http://www.w3.org/2000/svg" xmlns:xlink="http://www.w3.org/1999/xlink">
<g id="graph0" class="graph" transform="scale(1 1) rotate(0) translate(4 429)">
<title>Tree</title>
<polygon fill="white" stroke="none" points="-4,4 -4,-429 944.5,-429 944.5,4 -4,4"/>
<!-- 0 -->
<g id="node1" class="node"><title>0</title>
<polygon fill="none" stroke="black" points="567.5,-425 361.5,-425 361.5,-342 567.5,-342 567.5,-425"/>
<text text-anchor="middle" x="464.5" y="-409.8" font-family="Times,serif" font-size="14.00">AccountStatus_No account &lt;= 0.5</text>
<text text-anchor="middle" x="464.5" y="-394.8" font-family="Times,serif" font-size="14.00">gini = 0.498</text>
<text text-anchor="middle" x="464.5" y="-379.8" font-family="Times,serif" font-size="14.00">samples = 445</text>
<text text-anchor="middle" x="464.5" y="-364.8" font-family="Times,serif" font-size="14.00">value = [209, 236]</text>
<text text-anchor="middle" x="464.5" y="-349.8" font-family="Times,serif" font-size="14.00">class = Good</text>
</g>
<!-- 1 -->
<g id="node2" class="node"><title>1</title>
<polygon fill="none" stroke="black" points="439.5,-306 273.5,-306 273.5,-223 439.5,-223 439.5,-306"/>
<text text-anchor="middle" x="356.5" y="-290.8" font-family="Times,serif" font-size="14.00">Savings_&lt; 100 DM &lt;= 0.5</text>
<text text-anchor="middle" x="356.5" y="-275.8" font-family="Times,serif" font-size="14.00">gini = 0.484</text>
<text text-anchor="middle" x="356.5" y="-260.8" font-family="Times,serif" font-size="14.00">samples = 305</text>
<text text-anchor="middle" x="356.5" y="-245.8" font-family="Times,serif" font-size="14.00">value = [180, 125]</text>
<text text-anchor="middle" x="356.5" y="-230.8" font-family="Times,serif" font-size="14.00">class = Bad</text>
</g>
<!-- 0&#45;&gt;1 -->
<g id="edge1" class="edge"><title>0&#45;&gt;1</title>
<path fill="none" stroke="black" d="M427.03,-341.907C418.569,-332.742 409.509,-322.927 400.798,-313.489"/>
<polygon fill="black" stroke="black" points="403.258,-310.995 393.904,-306.021 398.115,-315.743 403.258,-310.995"/>
<text text-anchor="middle" x="392.905" y="-327.301" font-family="Times,serif" font-size="14.00">True</text>
</g>
<!-- 8 -->
<g id="node9" class="node"><title>8</title>
<polygon fill="none" stroke="black" points="665,-306 480,-306 480,-223 665,-223 665,-306"/>
<text text-anchor="middle" x="572.5" y="-290.8" font-family="Times,serif" font-size="14.00">InstallmentPlans_None &lt;= 0.5</text>
<text text-anchor="middle" x="572.5" y="-275.8" font-family="Times,serif" font-size="14.00">gini = 0.328</text>
<text text-anchor="middle" x="572.5" y="-260.8" font-family="Times,serif" font-size="14.00">samples = 140</text>
<text text-anchor="middle" x="572.5" y="-245.8" font-family="Times,serif" font-size="14.00">value = [29, 111]</text>
<text text-anchor="middle" x="572.5" y="-230.8" font-family="Times,serif" font-size="14.00">class = Good</text>
</g>
<!-- 0&#45;&gt;8 -->
<g id="edge8" class="edge"><title>0&#45;&gt;8</title>
<path fill="none" stroke="black" d="M501.97,-341.907C510.431,-332.742 519.491,-322.927 528.202,-313.489"/>
<polygon fill="black" stroke="black" points="530.885,-315.743 535.096,-306.021 525.742,-310.995 530.885,-315.743"/>
<text text-anchor="middle" x="536.095" y="-327.301" font-family="Times,serif" font-size="14.00">False</text>
</g>
<!-- 2 -->
<g id="node3" class="node"><title>2</title>
<polygon fill="none" stroke="black" points="228,-187 123,-187 123,-104 228,-104 228,-187"/>
<text text-anchor="middle" x="175.5" y="-171.8" font-family="Times,serif" font-size="14.00">Age &lt;= 29.5</text>
<text text-anchor="middle" x="175.5" y="-156.8" font-family="Times,serif" font-size="14.00">gini = 0.489</text>
<text text-anchor="middle" x="175.5" y="-141.8" font-family="Times,serif" font-size="14.00">samples = 94</text>
<text text-anchor="middle" x="175.5" y="-126.8" font-family="Times,serif" font-size="14.00">value = [40, 54]</text>
<text text-anchor="middle" x="175.5" y="-111.8" font-family="Times,serif" font-size="14.00">class = Good</text>
</g>
<!-- 1&#45;&gt;2 -->
<g id="edge2" class="edge"><title>1&#45;&gt;2</title>
<path fill="none" stroke="black" d="M293.703,-222.907C275.364,-211.053 255.346,-198.113 237.083,-186.308"/>
<polygon fill="black" stroke="black" points="238.572,-183.103 228.274,-180.613 234.772,-188.981 238.572,-183.103"/>
</g>
<!-- 5 -->
<g id="node6" class="node"><title>5</title>
<polygon fill="none" stroke="black" points="412.5,-187 300.5,-187 300.5,-104 412.5,-104 412.5,-187"/>
<text text-anchor="middle" x="356.5" y="-171.8" font-family="Times,serif" font-size="14.00">Months &lt;= 15.5</text>
<text text-anchor="middle" x="356.5" y="-156.8" font-family="Times,serif" font-size="14.00">gini = 0.447</text>
<text text-anchor="middle" x="356.5" y="-141.8" font-family="Times,serif" font-size="14.00">samples = 211</text>
<text text-anchor="middle" x="356.5" y="-126.8" font-family="Times,serif" font-size="14.00">value = [140, 71]</text>
<text text-anchor="middle" x="356.5" y="-111.8" font-family="Times,serif" font-size="14.00">class = Bad</text>
</g>
<!-- 1&#45;&gt;5 -->
<g id="edge5" class="edge"><title>1&#45;&gt;5</title>
<path fill="none" stroke="black" d="M356.5,-222.907C356.5,-214.649 356.5,-205.864 356.5,-197.302"/>
<polygon fill="black" stroke="black" points="360,-197.021 356.5,-187.021 353,-197.021 360,-197.021"/>
</g>
<!-- 3 -->
<g id="node4" class="node"><title>3</title>
<polygon fill="none" stroke="black" points="105,-68 0,-68 0,-0 105,-0 105,-68"/>
<text text-anchor="middle" x="52.5" y="-52.8" font-family="Times,serif" font-size="14.00">gini = 0.457</text>
<text text-anchor="middle" x="52.5" y="-37.8" font-family="Times,serif" font-size="14.00">samples = 34</text>
<text text-anchor="middle" x="52.5" y="-22.8" font-family="Times,serif" font-size="14.00">value = [22, 12]</text>
<text text-anchor="middle" x="52.5" y="-7.8" font-family="Times,serif" font-size="14.00">class = Bad</text>
</g>
<!-- 2&#45;&gt;3 -->
<g id="edge3" class="edge"><title>2&#45;&gt;3</title>
<path fill="none" stroke="black" d="M129.699,-103.726C119.147,-94.3318 107.933,-84.349 97.4184,-74.9883"/>
<polygon fill="black" stroke="black" points="99.7014,-72.3347 89.905,-68.2996 95.0469,-77.5631 99.7014,-72.3347"/>
</g>
<!-- 4 -->
<g id="node5" class="node"><title>4</title>
<polygon fill="none" stroke="black" points="228,-68 123,-68 123,-0 228,-0 228,-68"/>
<text text-anchor="middle" x="175.5" y="-52.8" font-family="Times,serif" font-size="14.00">gini = 0.42</text>
<text text-anchor="middle" x="175.5" y="-37.8" font-family="Times,serif" font-size="14.00">samples = 60</text>
<text text-anchor="middle" x="175.5" y="-22.8" font-family="Times,serif" font-size="14.00">value = [18, 42]</text>
<text text-anchor="middle" x="175.5" y="-7.8" font-family="Times,serif" font-size="14.00">class = Good</text>
</g>
<!-- 2&#45;&gt;4 -->
<g id="edge4" class="edge"><title>2&#45;&gt;4</title>
<path fill="none" stroke="black" d="M175.5,-103.726C175.5,-95.5175 175.5,-86.8595 175.5,-78.56"/>
<polygon fill="black" stroke="black" points="179,-78.2996 175.5,-68.2996 172,-78.2996 179,-78.2996"/>
</g>
<!-- 6 -->
<g id="node7" class="node"><title>6</title>
<polygon fill="none" stroke="black" points="351,-68 246,-68 246,-0 351,-0 351,-68"/>
<text text-anchor="middle" x="298.5" y="-52.8" font-family="Times,serif" font-size="14.00">gini = 0.5</text>
<text text-anchor="middle" x="298.5" y="-37.8" font-family="Times,serif" font-size="14.00">samples = 82</text>
<text text-anchor="middle" x="298.5" y="-22.8" font-family="Times,serif" font-size="14.00">value = [41, 41]</text>
<text text-anchor="middle" x="298.5" y="-7.8" font-family="Times,serif" font-size="14.00">class = Bad</text>
</g>
<!-- 5&#45;&gt;6 -->
<g id="edge6" class="edge"><title>5&#45;&gt;6</title>
<path fill="none" stroke="black" d="M334.903,-103.726C330.313,-95.0615 325.459,-85.8962 320.842,-77.1802"/>
<polygon fill="black" stroke="black" points="323.912,-75.4982 316.138,-68.2996 317.726,-78.7748 323.912,-75.4982"/>
</g>
<!-- 7 -->
<g id="node8" class="node"><title>7</title>
<polygon fill="none" stroke="black" points="474,-68 369,-68 369,-0 474,-0 474,-68"/>
<text text-anchor="middle" x="421.5" y="-52.8" font-family="Times,serif" font-size="14.00">gini = 0.357</text>
<text text-anchor="middle" x="421.5" y="-37.8" font-family="Times,serif" font-size="14.00">samples = 129</text>
<text text-anchor="middle" x="421.5" y="-22.8" font-family="Times,serif" font-size="14.00">value = [99, 30]</text>
<text text-anchor="middle" x="421.5" y="-7.8" font-family="Times,serif" font-size="14.00">class = Bad</text>
</g>
<!-- 5&#45;&gt;7 -->
<g id="edge7" class="edge"><title>5&#45;&gt;7</title>
<path fill="none" stroke="black" d="M380.704,-103.726C385.901,-94.9703 391.402,-85.7032 396.625,-76.9051"/>
<polygon fill="black" stroke="black" points="399.638,-78.6853 401.733,-68.2996 393.619,-75.1121 399.638,-78.6853"/>
</g>
<!-- 9 -->
<g id="node10" class="node"><title>9</title>
<polygon fill="none" stroke="black" points="669.5,-187 475.5,-187 475.5,-104 669.5,-104 669.5,-187"/>
<text text-anchor="middle" x="572.5" y="-171.8" font-family="Times,serif" font-size="14.00">Employment_1 &#45; 4 years &lt;= 0.5</text>
<text text-anchor="middle" x="572.5" y="-156.8" font-family="Times,serif" font-size="14.00">gini = 0.49</text>
<text text-anchor="middle" x="572.5" y="-141.8" font-family="Times,serif" font-size="14.00">samples = 28</text>
<text text-anchor="middle" x="572.5" y="-126.8" font-family="Times,serif" font-size="14.00">value = [12, 16]</text>
<text text-anchor="middle" x="572.5" y="-111.8" font-family="Times,serif" font-size="14.00">class = Good</text>
</g>
<!-- 8&#45;&gt;9 -->
<g id="edge9" class="edge"><title>8&#45;&gt;9</title>
<path fill="none" stroke="black" d="M572.5,-222.907C572.5,-214.649 572.5,-205.864 572.5,-197.302"/>
<polygon fill="black" stroke="black" points="576,-197.021 572.5,-187.021 569,-197.021 576,-197.021"/>
</g>
<!-- 12 -->
<g id="node13" class="node"><title>12</title>
<polygon fill="none" stroke="black" points="824,-187 719,-187 719,-104 824,-104 824,-187"/>
<text text-anchor="middle" x="771.5" y="-171.8" font-family="Times,serif" font-size="14.00">Age &lt;= 31.5</text>
<text text-anchor="middle" x="771.5" y="-156.8" font-family="Times,serif" font-size="14.00">gini = 0.257</text>
<text text-anchor="middle" x="771.5" y="-141.8" font-family="Times,serif" font-size="14.00">samples = 112</text>
<text text-anchor="middle" x="771.5" y="-126.8" font-family="Times,serif" font-size="14.00">value = [17, 95]</text>
<text text-anchor="middle" x="771.5" y="-111.8" font-family="Times,serif" font-size="14.00">class = Good</text>
</g>
<!-- 8&#45;&gt;12 -->
<g id="edge12" class="edge"><title>8&#45;&gt;12</title>
<path fill="none" stroke="black" d="M641.542,-222.907C663.84,-209.798 688.397,-195.36 710.103,-182.597"/>
<polygon fill="black" stroke="black" points="712.053,-185.511 718.9,-177.426 708.505,-179.477 712.053,-185.511"/>
</g>
<!-- 10 -->
<g id="node11" class="node"><title>10</title>
<polygon fill="none" stroke="black" points="590.5,-68 492.5,-68 492.5,-0 590.5,-0 590.5,-68"/>
<text text-anchor="middle" x="541.5" y="-52.8" font-family="Times,serif" font-size="14.00">gini = 0.388</text>
<text text-anchor="middle" x="541.5" y="-37.8" font-family="Times,serif" font-size="14.00">samples = 19</text>
<text text-anchor="middle" x="541.5" y="-22.8" font-family="Times,serif" font-size="14.00">value = [5, 14]</text>
<text text-anchor="middle" x="541.5" y="-7.8" font-family="Times,serif" font-size="14.00">class = Good</text>
</g>
<!-- 9&#45;&gt;10 -->
<g id="edge10" class="edge"><title>9&#45;&gt;10</title>
<path fill="none" stroke="black" d="M560.957,-103.726C558.581,-95.3351 556.073,-86.4745 553.676,-78.0072"/>
<polygon fill="black" stroke="black" points="557.019,-76.968 550.927,-68.2996 550.284,-78.8749 557.019,-76.968"/>
</g>
<!-- 11 -->
<g id="node12" class="node"><title>11</title>
<polygon fill="none" stroke="black" points="700.5,-68 608.5,-68 608.5,-0 700.5,-0 700.5,-68"/>
<text text-anchor="middle" x="654.5" y="-52.8" font-family="Times,serif" font-size="14.00">gini = 0.346</text>
<text text-anchor="middle" x="654.5" y="-37.8" font-family="Times,serif" font-size="14.00">samples = 9</text>
<text text-anchor="middle" x="654.5" y="-22.8" font-family="Times,serif" font-size="14.00">value = [7, 2]</text>
<text text-anchor="middle" x="654.5" y="-7.8" font-family="Times,serif" font-size="14.00">class = Bad</text>
</g>
<!-- 9&#45;&gt;11 -->
<g id="edge11" class="edge"><title>9&#45;&gt;11</title>
<path fill="none" stroke="black" d="M603.034,-103.726C609.727,-94.7878 616.82,-85.3168 623.53,-76.3558"/>
<polygon fill="black" stroke="black" points="626.371,-78.402 629.563,-68.2996 620.768,-74.206 626.371,-78.402"/>
</g>
<!-- 13 -->
<g id="node14" class="node"><title>13</title>
<polygon fill="none" stroke="black" points="824,-68 719,-68 719,-0 824,-0 824,-68"/>
<text text-anchor="middle" x="771.5" y="-52.8" font-family="Times,serif" font-size="14.00">gini = 0.444</text>
<text text-anchor="middle" x="771.5" y="-37.8" font-family="Times,serif" font-size="14.00">samples = 42</text>
<text text-anchor="middle" x="771.5" y="-22.8" font-family="Times,serif" font-size="14.00">value = [14, 28]</text>
<text text-anchor="middle" x="771.5" y="-7.8" font-family="Times,serif" font-size="14.00">class = Good</text>
</g>
<!-- 12&#45;&gt;13 -->
<g id="edge13" class="edge"><title>12&#45;&gt;13</title>
<path fill="none" stroke="black" d="M771.5,-103.726C771.5,-95.5175 771.5,-86.8595 771.5,-78.56"/>
<polygon fill="black" stroke="black" points="775,-78.2996 771.5,-68.2996 768,-78.2996 775,-78.2996"/>
</g>
<!-- 14 -->
<g id="node15" class="node"><title>14</title>
<polygon fill="none" stroke="black" points="940.5,-68 842.5,-68 842.5,-0 940.5,-0 940.5,-68"/>
<text text-anchor="middle" x="891.5" y="-52.8" font-family="Times,serif" font-size="14.00">gini = 0.082</text>
<text text-anchor="middle" x="891.5" y="-37.8" font-family="Times,serif" font-size="14.00">samples = 70</text>
<text text-anchor="middle" x="891.5" y="-22.8" font-family="Times,serif" font-size="14.00">value = [3, 67]</text>
<text text-anchor="middle" x="891.5" y="-7.8" font-family="Times,serif" font-size="14.00">class = Good</text>
</g>
<!-- 12&#45;&gt;14 -->
<g id="edge14" class="edge"><title>12&#45;&gt;14</title>
<path fill="none" stroke="black" d="M816.184,-103.726C826.379,-94.423 837.207,-84.5428 847.378,-75.2612"/>
<polygon fill="black" stroke="black" points="849.98,-77.6255 855.007,-68.2996 845.261,-72.4547 849.98,-77.6255"/>
</g>
</g>
</svg>
